<?xml version="1.0" standalone="no"?>
<!DOCTYPE svg PUBLIC "-//W3C//DTD SVG 20010904//EN"
 "http://www.w3.org/TR/2001/REC-SVG-20010904/DTD/svg10.dtd">
<svg version="1.0" xmlns="http://www.w3.org/2000/svg"
 width="500.000000pt" height="500.000000pt" viewBox="0 0 500.000000 500.000000"
 preserveAspectRatio="xMidYMid meet">
<metadata>
Created by potrace 1.14, written by Peter Selinger 2001-2017
</metadata>
<g transform="translate(0.000000,500.000000) scale(0.100000,-0.100000)"
fill="#000000" stroke="none">
<path d="M2349 4496 c-2 -2 -38 -7 -79 -10 -41 -4 -82 -8 -90 -10 -8 -1 -33
-6 -55 -11 -665 -128 -1233 -597 -1482 -1225 -61 -152 -105 -323 -127 -484
-15 -115 -14 -435 3 -531 5 -33 12 -76 15 -95 38 -251 207 -629 376 -844 319
-406 752 -667 1253 -757 77 -14 168 -22 292 -24 353 -6 624 53 932 205 524
260 907 732 1050 1295 25 101 27 110 37 177 18 119 21 158 21 308 0 189 -8
271 -41 435 -42 205 -159 485 -281 670 -176 266 -410 485 -693 647 -210 120
-426 193 -720 243 -40 7 -405 17 -411 11z"/>
</g>
</svg>
