<svg xmlns="http://www.w3.org/2000/svg" xmlns:xlink="http://www.w3.org/1999/xlink" width="500" zoomAndPan="magnify" viewBox="0 0 375 374.999991" height="500" preserveAspectRatio="xMidYMid meet" version="1.0"><path fill="#46c08f" d="M 316.746094 307.734375 C 313.0625 307.734375 309.492188 305.816406 307.542969 302.394531 L 262.679688 228.496094 C 259.777344 223.421875 260.910156 217.066406 265.984375 214.152344 L 318.507812 182.371094 C 320.160156 181.429688 323.761719 180.613281 325.539062 180.613281 C 329.226562 180.613281 332.660156 182.710938 334.609375 186.132812 L 367.519531 240.390625 L 369.257812 264.035156 C 372.160156 269.109375 359.109375 276.578125 354.023438 279.480469 L 321.980469 306.335938 C 320.339844 307.289062 318.527344 307.734375 316.746094 307.734375 Z M 316.746094 307.734375 " fill-opacity="1" fill-rule="nonzero"/><path fill="#21a475" d="M 242.585938 339.511719 C 236.726562 339.511719 231.992188 334.777344 231.992188 328.917969 L 231.992188 265.359375 C 231.992188 259.503906 236.726562 254.765625 242.585938 254.765625 L 348.515625 254.765625 C 368.113281 254.765625 364.9375 235.902344 364.9375 235.902344 C 364.9375 235.902344 368.398438 241.855469 368.910156 242.796875 C 372.371094 249.300781 374.671875 259.238281 369.269531 269.332031 L 336.546875 334.183594 C 335.011719 337.246094 331.34375 339.511719 327.332031 339.511719 Z M 242.585938 339.511719 " fill-opacity="1" fill-rule="nonzero"/><path fill="#21a475" d="M 231.992188 371.292969 C 229.238281 371.292969 226.527344 370.210938 224.503906 368.1875 L 160.941406 304.628906 C 156.800781 300.488281 156.800781 293.792969 160.941406 289.652344 L 224.503906 226.089844 C 226.527344 224.066406 229.238281 222.988281 231.992188 222.988281 C 233.359375 222.988281 234.734375 223.242188 236.046875 223.792969 C 240.011719 225.421875 242.585938 229.300781 242.585938 233.582031 L 242.585938 360.699219 C 242.585938 364.980469 240.011719 368.855469 236.046875 370.488281 C 234.734375 371.039062 233.359375 371.292969 231.992188 371.292969 Z M 231.992188 371.292969 " fill-opacity="1" fill-rule="nonzero"/><path fill="#46c08f" d="M 217.085938 35.476562 C 218.761719 38.761719 218.675781 42.808594 216.515625 46.113281 L 171.039062 119.628906 C 167.828125 124.535156 161.652344 126.398438 156.757812 123.1875 L 104.597656 90.835938 C 103.007812 89.789062 100.636719 86.949219 99.832031 85.371094 C 98.15625 82.085938 98.464844 78.082031 100.625 74.777344 L 134.015625 20.816406 L 154.289062 8.539062 C 157.5 3.632812 170.074219 11.875 174.980469 15.09375 L 213.441406 31.453125 C 215.054688 32.5 216.28125 33.910156 217.085938 35.476562 Z M 217.085938 35.476562 " fill-opacity="1" fill-rule="nonzero"/><path fill="#21a475" d="M 279.066406 87.128906 C 281.726562 92.351562 279.671875 98.71875 274.4375 101.386719 L 217.796875 130.242188 C 212.585938 132.890625 206.207031 130.828125 203.558594 125.613281 L 155.445312 31.230469 C 146.558594 13.761719 131.1875 25.160156 131.1875 25.160156 C 131.1875 25.160156 134.914062 19.375 135.53125 18.484375 C 139.757812 12.445312 147.554688 5.902344 159.003906 6.121094 L 231.664062 5.828125 C 235.09375 5.828125 238.769531 8.039062 240.605469 11.621094 Z M 279.066406 87.128906 " fill-opacity="1" fill-rule="nonzero"/><path fill="#21a475" d="M 312.191406 82.152344 C 313.441406 84.597656 313.707031 87.5 312.828125 90.222656 L 285.0625 175.71875 C 283.261719 181.28125 277.289062 184.320312 271.714844 182.519531 L 186.230469 154.734375 C 183.496094 153.855469 181.3125 151.929688 180.054688 149.480469 C 179.429688 148.273438 179.035156 146.917969 178.917969 145.496094 C 178.582031 141.21875 180.867188 137.171875 184.683594 135.234375 L 297.945312 77.519531 C 301.757812 75.570312 306.367188 76.101562 309.628906 78.898438 C 310.71875 79.808594 311.578125 80.933594 312.191406 82.152344 Z M 312.191406 82.152344 " fill-opacity="1" fill-rule="nonzero"/><path fill="#46c08f" d="M 34.691406 260.507812 C 36.609375 257.363281 40.09375 255.316406 44.035156 255.433594 L 130.488281 255.488281 C 136.34375 255.667969 141.175781 259.9375 141.027344 265.785156 L 140.878906 327.171875 C 140.828125 329.078125 139.652344 332.59375 138.730469 334.097656 C 136.8125 337.246094 133.230469 339.097656 129.289062 338.984375 L 65.835938 338.898438 L 44.722656 328.105469 C 38.886719 327.921875 39.289062 312.902344 39.4375 307.066406 L 33.15625 265.710938 C 33.199219 263.8125 33.769531 262.023438 34.691406 260.507812 Z M 34.691406 260.507812 " fill-opacity="1" fill-rule="nonzero"/><path fill="#21a475" d="M 46.089844 180.636719 C 49.132812 175.636719 55.644531 174.046875 60.644531 177.085938 L 114.945312 210.128906 C 119.957031 213.167969 121.535156 219.671875 118.496094 224.683594 L 63.441406 315.179688 C 53.273438 331.917969 71.039062 339.015625 71.039062 339.015625 C 71.039062 339.015625 64.152344 338.867188 63.082031 338.804688 C 55.710938 338.402344 46.039062 335.191406 40.210938 325.339844 L 1.800781 263.6875 C -0.0117188 260.773438 -0.0429688 256.460938 2.042969 253.03125 Z M 46.089844 180.636719 " fill-opacity="1" fill-rule="nonzero"/><path fill="#21a475" d="M 24.4375 155.074219 C 25.878906 152.703125 28.199219 150.964844 30.984375 150.265625 L 118.328125 129.015625 C 124.015625 127.617188 129.734375 131.101562 131.121094 136.789062 L 152.382812 224.121094 C 153.0625 226.917969 152.5625 229.777344 151.132812 232.140625 C 150.433594 233.292969 149.492188 234.34375 148.335938 235.191406 C 144.882812 237.710938 140.242188 237.902344 136.578125 235.679688 L 27.996094 169.628906 C 24.332031 167.394531 22.371094 163.179688 23.03125 158.953125 C 23.242188 157.53125 23.730469 156.238281 24.4375 155.074219 Z M 24.4375 155.074219 " fill-opacity="1" fill-rule="nonzero"/></svg>